<?xml version="1.0" standalone="no"?>
<!DOCTYPE svg PUBLIC "-//W3C//DTD SVG 20010904//EN"
 "http://www.w3.org/TR/2001/REC-SVG-20010904/DTD/svg10.dtd">
<svg version="1.0" xmlns="http://www.w3.org/2000/svg"
 width="512.000000pt" height="512.000000pt" viewBox="0 0 512.000000 512.000000"
 preserveAspectRatio="xMidYMid meet">

<g transform="translate(0.000000,512.000000) scale(0.100000,-0.100000)"
fill="#000000" stroke="none">
<path d="M2319 4430 c-1434 -480 -2071 -698 -2087 -713 -67 -62 -67 -117 -2
-311 l50 -149 -40 -47 c-133 -158 -151 -386 -46 -565 28 -47 106 -128 147
-152 l29 -17 0 -1156 c0 -801 3 -1167 11 -1195 13 -47 52 -92 96 -111 27 -12
383 -14 2210 -14 2151 0 2177 0 2217 20 23 11 52 36 66 57 l25 37 0 1420 0
1421 -1949 5 -1949 5 -13 52 c-7 29 -25 75 -38 102 l-25 49 932 312 c513 172
1351 452 1862 622 512 171 934 314 939 318 4 5 -38 146 -93 313 -108 323 -119
344 -188 373 -18 8 -45 14 -61 14 -16 0 -957 -311 -2093 -690z m1658 348 c-2
-7 -28 -112 -57 -233 -29 -121 -57 -225 -64 -231 -13 -14 -475 -168 -482 -161
-2 2 22 109 53 238 l58 234 240 82 c132 45 244 82 249 82 4 1 6 -5 3 -11z
m-1227 -405 c0 -5 -25 -113 -57 -240 l-58 -233 -240 -80 c-132 -44 -243 -80
-246 -80 -5 0 66 310 102 442 l9 36 238 80 c256 87 252 86 252 75z m-1224
-420 c-3 -10 -26 -101 -51 -203 -25 -102 -50 -202 -56 -222 l-9 -36 -242 -81
c-133 -44 -244 -79 -246 -76 -2 2 22 110 54 239 l59 236 235 79 c129 44 241
80 248 80 8 1 11 -6 8 -16z m-810 -833 c119 -51 177 -202 123 -320 -27 -60
-64 -98 -124 -126 -163 -77 -350 44 -348 224 1 65 14 103 49 150 71 92 188
120 300 72z m1064 -305 c0 -6 -241 -388 -255 -403 -8 -9 -71 -12 -268 -10
l-257 3 131 208 131 207 259 0 c143 0 259 -2 259 -5z m1290 -2 c-1 -5 -58 -98
-128 -208 l-128 -200 -258 -3 c-210 -2 -257 0 -254 11 2 7 59 102 128 210
l125 197 257 0 c142 0 258 -3 258 -7z m1193 -160 c-58 -93 -117 -186 -132
-208 l-27 -40 -258 -3 c-226 -2 -258 0 -253 13 4 8 62 102 129 210 l123 195
262 0 262 0 -106 -167z m-1384 -1033 c231 -146 421 -268 421 -272 0 -5 -783
-500 -857 -542 -10 -6 -13 106 -13 544 0 461 2 550 14 543 7 -4 203 -127 435
-273z"/>
</g>
</svg>
